<?xml version="1.0" encoding="UTF-8"?>
<svg xmlns="http://www.w3.org/2000/svg" xmlns:xlink="http://www.w3.org/1999/xlink" viewBox="0 0 80 80" width="80px" height="80px">
<g id="surface131021447">
<path style=" stroke:none;fill-rule:nonzero;fill:rgb(39.215687%,100%,85.490197%);fill-opacity:1;" d="M 53.253906 15 C 52.859375 15 52.5 15.3125 52.5 15.753906 L 52.5 29.492188 L 49.382812 27.675781 C 49.191406 27.5625 48.96875 27.503906 48.75 27.503906 C 48.53125 27.503906 48.308594 27.5625 48.117188 27.675781 L 40.628906 32.039062 C 40.238281 32.265625 40 32.683594 40 33.128906 L 40 41.871094 C 40 42.320312 40.238281 42.734375 40.628906 42.960938 L 48.117188 47.324219 C 48.308594 47.4375 48.53125 47.496094 48.75 47.496094 C 48.96875 47.496094 49.191406 47.4375 49.382812 47.324219 L 56.871094 42.960938 C 57.261719 42.734375 57.5 42.316406 57.5 41.871094 L 57.5 18.078125 C 57.5 17.632812 57.261719 17.222656 56.878906 16.996094 L 53.621094 15.101562 C 53.5 15.03125 53.378906 15 53.253906 15 Z M 28.75 27.503906 C 28.53125 27.503906 28.3125 27.5625 28.117188 27.675781 L 20.628906 32.042969 C 20.238281 32.265625 20 32.683594 20 33.128906 L 20 41.871094 C 20 42.320312 20.238281 42.734375 20.628906 42.960938 L 28.117188 47.324219 C 28.507812 47.550781 28.992188 47.550781 29.386719 47.324219 L 36.871094 42.960938 C 37.261719 42.734375 37.5 42.316406 37.5 41.871094 L 37.5 33.128906 C 37.5 32.679688 37.261719 32.265625 36.871094 32.042969 L 29.386719 27.675781 C 29.1875 27.5625 28.96875 27.503906 28.75 27.503906 Z M 68.75 27.503906 C 68.53125 27.503906 68.308594 27.5625 68.117188 27.675781 L 60.628906 32.042969 C 60.238281 32.265625 60 32.683594 60 33.128906 L 60 41.871094 C 60 42.320312 60.238281 42.734375 60.628906 42.960938 L 67.890625 47.347656 C 68.28125 47.585938 68.769531 47.589844 69.164062 47.359375 L 72.734375 45.285156 C 73.105469 45.070312 73.105469 44.535156 72.734375 44.316406 L 65 39.761719 L 65 35.273438 L 68.75 33.089844 L 72.5 35.273438 L 72.5 38.398438 C 72.5 38.816406 72.851562 38.878906 73.085938 38.742188 C 74.03125 38.183594 76.878906 36.535156 76.878906 36.535156 C 77.261719 36.3125 77.5 35.898438 77.5 35.453125 L 77.5 33.128906 C 77.5 32.679688 77.261719 32.265625 76.871094 32.042969 L 69.382812 27.675781 C 69.1875 27.5625 68.96875 27.503906 68.75 27.503906 Z M 8.75 27.507812 C 8.53125 27.507812 8.308594 27.566406 8.113281 27.679688 L 0.628906 32.039062 C 0.238281 32.269531 0 32.683594 0 33.132812 L 0 44.292969 C 0 44.835938 0.589844 45.175781 1.058594 44.902344 L 4.378906 42.96875 C 4.761719 42.742188 5 42.335938 5 41.890625 L 5 35.28125 L 8.75 33.09375 L 12.5 35.285156 L 12.5 41.890625 C 12.5 42.335938 12.738281 42.742188 13.121094 42.96875 L 16.441406 44.902344 C 16.910156 45.175781 17.5 44.835938 17.5 44.292969 L 17.5 33.136719 C 17.5 32.683594 17.261719 32.269531 16.871094 32.042969 L 9.382812 27.679688 C 9.191406 27.566406 8.96875 27.511719 8.75 27.511719 Z M 48.75 33.089844 L 52.5 35.277344 L 52.5 39.722656 L 48.75 41.910156 L 45 39.722656 L 45 35.277344 Z M 68.75 35.007812 L 66.605469 36.257812 L 66.605469 38.753906 L 68.75 40 L 70.894531 38.753906 L 70.894531 36.257812 Z M 38.515625 44.996094 C 38.257812 44.996094 38 45.058594 37.773438 45.183594 L 30.742188 49.246094 C 30.28125 49.503906 30 50.003906 30 50.527344 L 30 58.640625 C 30 59.164062 30.292969 59.65625 30.742188 59.921875 L 32.59375 60.976562 C 33.480469 61.414062 33.804688 61.414062 34.210938 61.414062 C 35.535156 61.414062 36.289062 60.625 36.289062 59.222656 L 36.289062 51.207031 C 36.289062 51.082031 36.195312 50.996094 36.085938 50.996094 L 35.195312 50.996094 C 35.074219 50.996094 34.984375 51.097656 34.984375 51.207031 L 34.984375 59.222656 C 34.984375 59.832031 34.34375 60.453125 33.296875 59.933594 L 31.371094 58.824219 C 31.308594 58.785156 31.265625 58.710938 31.265625 58.636719 L 31.265625 50.523438 C 31.265625 50.449219 31.300781 50.363281 31.371094 50.328125 L 38.402344 46.273438 C 38.476562 46.238281 38.5625 46.238281 38.621094 46.273438 L 45.660156 50.328125 C 45.730469 50.363281 45.765625 50.4375 45.765625 50.523438 L 45.765625 58.636719 C 45.765625 58.722656 45.71875 58.796875 45.660156 58.832031 L 38.621094 62.902344 C 38.5625 62.9375 38.464844 62.9375 38.402344 62.902344 L 36.605469 61.832031 C 36.558594 61.804688 36.484375 61.792969 36.4375 61.816406 C 35.9375 62.109375 35.839844 62.148438 35.375 62.304688 C 35.253906 62.34375 35.085938 62.417969 35.4375 62.613281 L 37.773438 64 C 38.007812 64.121094 38.261719 64.195312 38.515625 64.195312 C 38.78125 64.195312 39.042969 64.121094 39.246094 63.988281 L 46.28125 59.921875 C 46.742188 59.667969 47.019531 59.164062 47.019531 58.640625 L 47.019531 50.527344 C 47.019531 50.003906 46.730469 49.515625 46.28125 49.246094 L 39.246094 45.1875 C 39.03125 45.058594 38.773438 44.996094 38.515625 44.996094 Z M 49.484375 48.742188 C 48.765625 48.742188 48.136719 49.320312 48.136719 50.089844 C 48.136719 50.832031 48.738281 51.441406 49.484375 51.441406 C 50.226562 51.441406 50.832031 50.832031 50.832031 50.089844 C 50.832031 49.320312 50.210938 48.726562 49.484375 48.742188 Z M 49.46875 48.957031 C 50.101562 48.957031 50.613281 49.457031 50.613281 50.089844 C 50.613281 50.707031 50.101562 51.21875 49.46875 51.234375 C 48.84375 51.234375 48.339844 50.71875 48.339844 50.089844 C 48.339844 49.457031 48.847656 48.957031 49.46875 48.957031 Z M 48.972656 49.320312 L 48.972656 50.839844 L 49.261719 50.839844 L 49.261719 50.234375 L 49.53125 50.234375 C 49.640625 50.234375 49.667969 50.28125 49.691406 50.367188 C 49.691406 50.378906 49.738281 50.773438 49.75 50.84375 L 50.0625 50.84375 C 50.027344 50.773438 50.003906 50.5625 49.988281 50.4375 C 49.957031 50.246094 49.945312 50.109375 49.734375 50.097656 C 49.847656 50.058594 50.03125 50 50.03125 49.722656 C 50.03125 49.320312 49.679688 49.320312 49.496094 49.320312 Z M 49.261719 49.566406 L 49.507812 49.566406 C 49.582031 49.566406 49.726562 49.5625 49.726562 49.769531 C 49.726562 49.855469 49.691406 49.992188 49.492188 49.988281 L 49.261719 49.988281 Z M 40.402344 50.804688 C 38.394531 50.804688 37.203125 51.660156 37.203125 53.070312 C 37.203125 54.617188 38.394531 55.03125 40.316406 55.222656 C 42.617188 55.453125 42.796875 55.785156 42.796875 56.234375 C 42.796875 57.023438 42.164062 57.355469 40.679688 57.355469 C 38.816406 57.355469 38.40625 56.890625 38.273438 55.96875 C 38.257812 55.871094 38.171875 55.796875 38.0625 55.796875 L 37.148438 55.796875 C 37.039062 55.796875 36.945312 55.882812 36.945312 56.007812 C 36.945312 57.1875 37.585938 58.597656 40.664062 58.597656 C 42.921875 58.597656 44.199219 57.722656 44.199219 56.1875 C 44.199219 54.667969 43.175781 54.261719 41.011719 53.96875 C 38.820312 53.675781 38.605469 53.53125 38.605469 53.015625 C 38.605469 52.59375 38.78125 52.035156 40.402344 52.035156 C 41.847656 52.035156 42.386719 52.351562 42.609375 53.324219 C 42.632812 53.421875 42.699219 53.480469 42.796875 53.480469 L 43.710938 53.480469 C 43.769531 53.480469 43.824219 53.457031 43.855469 53.421875 C 43.894531 53.375 43.917969 53.328125 43.90625 53.265625 C 43.761719 51.585938 42.652344 50.804688 40.398438 50.804688 Z M 40.402344 50.804688 "/>
</g>
</svg>
