<?xml version="1.0" encoding="UTF-8"?>
<svg xmlns="http://www.w3.org/2000/svg" xmlns:xlink="http://www.w3.org/1999/xlink" viewBox="0 0 80 80" width="80px" height="80px">
<g id="surface152756184">
<path style=" stroke:none;fill-rule:nonzero;fill:rgb(32.549021%,92.54902%,80.784315%);fill-opacity:1;" d="M 38.332031 6.667969 C 27.304688 6.667969 18.332031 18.785156 18.332031 33.675781 C 18.332031 41.730469 20.96875 48.957031 25.128906 53.902344 C 25.050781 54.257812 25 54.621094 25 55 C 25 57.761719 27.238281 60 30 60 C 32.761719 60 35 57.761719 35 55 C 35 52.238281 32.761719 50 30 50 C 29.476562 50 28.980469 50.101562 28.503906 50.253906 C 25.34375 46.21875 23.332031 40.292969 23.332031 33.675781 C 23.332031 21.539062 30.0625 11.667969 38.332031 11.667969 C 44.726562 11.667969 50.183594 17.578125 52.339844 25.863281 C 54.210938 26.441406 56.066406 27.167969 57.890625 28.042969 C 55.964844 15.847656 47.933594 6.667969 38.332031 6.667969 Z M 38.332031 6.667969 "/>
<path style=" stroke:none;fill-rule:nonzero;fill:rgb(32.549021%,92.54902%,80.784315%);fill-opacity:1;" d="M 59.179688 33.472656 C 52.601562 29.488281 45.222656 27.738281 38.875 28.542969 C 37.957031 27.40625 36.570312 26.667969 35 26.667969 C 32.238281 26.667969 30 28.90625 30 31.667969 C 30 34.429688 32.238281 36.667969 35 36.667969 C 37.121094 36.667969 38.921875 35.339844 39.648438 33.480469 C 44.84375 32.847656 51 34.363281 56.585938 37.75 C 67.257812 44.21875 72.703125 55.367188 68.722656 62.601562 C 67.34375 65.109375 64.914062 66.890625 61.691406 67.753906 C 57.882812 68.773438 53.347656 68.410156 48.816406 66.875 C 47.417969 68.160156 45.898438 69.371094 44.273438 70.488281 C 48.527344 72.347656 52.933594 73.328125 57.054688 73.328125 C 59.121094 73.328125 61.117188 73.082031 62.988281 72.582031 C 67.554688 71.359375 71.054688 68.742188 73.105469 65.011719 C 78.359375 55.460938 72.113281 41.3125 59.179688 33.472656 Z M 59.179688 33.472656 "/>
<path style=" stroke:none;fill-rule:nonzero;fill:rgb(32.549021%,92.54902%,80.784315%);fill-opacity:1;" d="M 58.332031 48.320312 C 58.332031 45.566406 56.09375 43.332031 53.332031 43.332031 C 50.570312 43.332031 48.332031 45.566406 48.332031 48.320312 C 48.332031 49.433594 48.714844 50.453125 49.332031 51.285156 C 47.203125 55.953125 43.09375 60.5625 37.5625 63.914062 C 31.121094 67.820312 23.921875 69.25 18.304688 67.75 C 15.085938 66.886719 12.652344 65.109375 11.273438 62.601562 C 8.4375 57.445312 10.40625 50.308594 15.625 44.289062 C 15.085938 42.382812 14.6875 40.386719 14.449219 38.328125 C 6 46.324219 2.601562 57.203125 6.894531 65.011719 C 8.945312 68.742188 12.445312 71.359375 17.011719 72.582031 C 18.882812 73.082031 20.875 73.328125 22.945312 73.328125 C 28.523438 73.328125 34.625 71.546875 40.15625 68.191406 C 46.546875 64.316406 51.292969 58.898438 53.835938 53.257812 C 56.359375 53 58.332031 50.902344 58.332031 48.320312 Z M 58.332031 48.320312 "/>
</g>
</svg>
