<?xml version="1.0" encoding="UTF-8"?>
<svg xmlns="http://www.w3.org/2000/svg" xmlns:xlink="http://www.w3.org/1999/xlink" viewBox="0 0 80 80" width="80px" height="80px">
<g id="surface152538480">
<path style=" stroke:none;fill-rule:nonzero;fill:rgb(32.549021%,92.54902%,80.784315%);fill-opacity:1;" d="M 66.445312 43.261719 C 63.882812 43.273438 61.660156 43.886719 59.800781 44.808594 C 59.121094 43.449219 58.433594 42.253906 58.316406 41.363281 C 58.183594 40.328125 58.023438 39.707031 58.1875 38.472656 C 58.351562 37.238281 59.066406 35.488281 59.058594 35.355469 C 59.046875 35.226562 58.898438 34.597656 57.417969 34.585938 C 55.941406 34.574219 54.675781 34.871094 54.527344 35.261719 C 54.378906 35.648438 54.09375 36.527344 53.917969 37.445312 C 53.660156 38.785156 50.964844 43.566406 49.4375 46.066406 C 48.9375 45.089844 48.511719 44.230469 48.421875 43.550781 C 48.289062 42.511719 48.132812 41.894531 48.296875 40.660156 C 48.457031 39.421875 49.171875 37.671875 49.164062 37.542969 C 49.152344 37.410156 49.003906 36.78125 47.523438 36.769531 C 46.046875 36.761719 44.78125 37.054688 44.632812 37.445312 C 44.484375 37.835938 44.324219 38.746094 44.023438 39.628906 C 43.71875 40.511719 40.140625 48.488281 39.203125 50.554688 C 38.726562 51.609375 38.308594 52.453125 38.015625 53.03125 C 38.015625 53.03125 38.015625 53.027344 38.015625 53.027344 C 38.015625 53.027344 37.996094 53.066406 37.964844 53.132812 C 37.714844 53.625 37.566406 53.894531 37.566406 53.894531 C 37.566406 53.894531 37.566406 53.898438 37.570312 53.90625 C 37.371094 54.265625 37.160156 54.601562 37.054688 54.601562 C 36.980469 54.601562 36.832031 53.640625 37.085938 52.320312 C 37.617188 49.554688 38.898438 45.238281 38.886719 45.089844 C 38.878906 45.011719 39.125 44.261719 38.050781 43.867188 C 37.007812 43.488281 36.636719 44.125 36.539062 44.125 C 36.449219 44.125 36.378906 44.351562 36.378906 44.351562 C 36.378906 44.351562 37.542969 39.5 34.164062 39.5 C 32.050781 39.5 29.125 41.808594 27.683594 43.90625 C 26.773438 44.402344 24.824219 45.464844 22.757812 46.601562 C 21.964844 47.035156 21.15625 47.480469 20.386719 47.90625 C 20.335938 47.847656 20.28125 47.789062 20.226562 47.730469 C 16.128906 43.359375 8.558594 40.269531 8.875 34.390625 C 8.992188 32.253906 9.738281 26.625 23.433594 19.804688 C 34.648438 14.214844 43.632812 15.75 45.183594 19.160156 C 47.398438 24.03125 40.382812 33.082031 28.734375 34.390625 C 24.296875 34.886719 21.957031 33.167969 21.375 32.527344 C 20.761719 31.851562 20.671875 31.820312 20.441406 31.949219 C 20.070312 32.15625 20.308594 32.75 20.441406 33.105469 C 20.792969 34.011719 22.21875 35.613281 24.652344 36.414062 C 26.792969 37.117188 32.003906 37.503906 38.308594 35.066406 C 45.367188 32.335938 50.878906 24.738281 49.257812 18.390625 C 47.613281 11.933594 36.90625 9.808594 26.773438 13.410156 C 20.734375 15.554688 14.203125 18.917969 9.511719 23.308594 C 3.929688 28.527344 3.039062 33.070312 3.40625 34.96875 C 4.707031 41.714844 14.007812 46.109375 17.730469 49.363281 C 17.546875 49.464844 17.375 49.5625 17.214844 49.648438 C 15.351562 50.570312 8.261719 54.28125 6.488281 58.199219 C 4.476562 62.644531 6.808594 65.835938 8.351562 66.265625 C 13.132812 67.59375 18.039062 65.203125 20.679688 61.269531 C 23.316406 57.335938 22.992188 52.214844 21.785156 49.878906 C 21.769531 49.851562 21.75 49.820312 21.738281 49.792969 C 22.21875 49.507812 22.710938 49.214844 23.195312 48.929688 C 24.148438 48.371094 25.078125 47.851562 25.886719 47.410156 C 25.433594 48.652344 25.101562 50.140625 24.933594 52.289062 C 24.726562 54.8125 25.761719 58.074219 27.117188 59.355469 C 27.714844 59.921875 28.429688 59.933594 28.882812 59.933594 C 30.457031 59.933594 31.175781 58.625 31.96875 57.074219 C 32.9375 55.175781 33.800781 52.960938 33.800781 52.960938 C 33.800781 52.960938 32.71875 58.9375 35.664062 58.9375 C 36.738281 58.9375 37.816406 57.546875 38.296875 56.839844 C 38.296875 56.847656 38.296875 56.851562 38.296875 56.851562 C 38.296875 56.851562 38.328125 56.804688 38.382812 56.710938 C 38.492188 56.542969 38.558594 56.433594 38.558594 56.433594 C 38.558594 56.433594 38.558594 56.421875 38.5625 56.402344 C 38.992188 55.652344 39.949219 53.945312 41.382812 51.132812 C 43.238281 47.496094 45.011719 42.9375 45.011719 42.9375 C 45.011719 42.9375 45.179688 44.050781 45.71875 45.894531 C 46.039062 46.976562 46.714844 48.175781 47.25 49.328125 C 46.820312 49.921875 46.558594 50.265625 46.558594 50.265625 C 46.558594 50.265625 46.558594 50.273438 46.5625 50.285156 C 46.21875 50.738281 45.835938 51.230469 45.433594 51.710938 C 43.96875 53.453125 42.226562 55.441406 41.992188 56.015625 C 41.71875 56.691406 41.785156 57.191406 42.316406 57.589844 C 42.703125 57.882812 43.394531 57.929688 44.113281 57.882812 C 45.429688 57.792969 46.351562 57.464844 46.808594 57.269531 C 47.523438 57.015625 48.351562 56.621094 49.125 56.050781 C 50.5625 54.996094 51.425781 53.488281 51.34375 51.488281 C 51.296875 50.386719 50.945312 49.292969 50.5 48.261719 C 50.632812 48.078125 50.761719 47.886719 50.894531 47.695312 C 53.15625 44.390625 54.910156 40.757812 54.910156 40.757812 C 54.910156 40.757812 55.074219 41.871094 55.617188 43.714844 C 55.890625 44.644531 56.433594 45.664062 56.917969 46.660156 C 54.792969 48.386719 53.472656 50.398438 53.015625 51.714844 C 52.167969 54.148438 52.832031 55.253906 54.074219 55.503906 C 54.636719 55.617188 55.433594 55.359375 56.035156 55.105469 C 56.777344 54.859375 57.671875 54.449219 58.511719 53.832031 C 59.945312 52.777344 61.324219 51.300781 61.242188 49.304688 C 61.203125 48.394531 60.957031 47.488281 60.621094 46.625 C 62.425781 45.871094 64.757812 45.453125 67.730469 45.800781 C 74.109375 46.546875 75.359375 50.527344 75.121094 52.195312 C 74.882812 53.863281 73.546875 54.777344 73.097656 55.054688 C 72.648438 55.332031 72.511719 55.429688 72.550781 55.632812 C 72.605469 55.933594 72.8125 55.921875 73.191406 55.855469 C 73.71875 55.769531 76.542969 54.5 76.664062 51.425781 C 76.816406 47.515625 73.074219 43.226562 66.445312 43.261719 Z M 17.285156 59.832031 C 15.171875 62.136719 12.21875 63.007812 10.953125 62.273438 C 9.585938 61.484375 10.128906 58.089844 12.71875 55.644531 C 14.300781 54.152344 16.339844 52.78125 17.691406 51.933594 C 18 51.75 18.453125 51.476562 19.003906 51.148438 C 19.09375 51.097656 19.148438 51.066406 19.148438 51.066406 L 19.144531 51.066406 C 19.25 51 19.359375 50.9375 19.472656 50.867188 C 20.417969 54.351562 19.5 57.414062 17.285156 59.832031 Z M 32.675781 49.371094 C 31.941406 51.164062 30.398438 55.753906 29.460938 55.507812 C 28.65625 55.296875 28.167969 51.808594 29.300781 48.375 C 29.871094 46.648438 31.089844 44.582031 31.808594 43.78125 C 32.960938 42.488281 34.230469 42.066406 34.539062 42.589844 C 34.933594 43.257812 33.136719 48.246094 32.675781 49.371094 Z M 45.390625 55.4375 C 45.078125 55.601562 44.792969 55.703125 44.660156 55.625 C 44.5625 55.566406 44.789062 55.351562 44.789062 55.351562 C 44.789062 55.351562 46.378906 53.640625 47.003906 52.863281 C 47.371094 52.410156 47.792969 51.871094 48.25 51.269531 C 48.253906 51.328125 48.257812 51.390625 48.257812 51.449219 C 48.253906 53.5 46.273438 54.882812 45.390625 55.4375 Z M 55.183594 53.203125 C 54.953125 53.039062 54.992188 52.503906 55.757812 50.835938 C 56.058594 50.183594 56.742188 49.078125 57.933594 48.027344 C 58.070312 48.460938 58.15625 48.875 58.152344 49.261719 C 58.136719 51.839844 56.296875 52.804688 55.183594 53.203125 Z M 55.183594 53.203125 "/>
</g>
</svg>
